<svg xmlns="http://www.w3.org/2000/svg" xmlns:xlink="http://www.w3.org/1999/xlink" width="500" zoomAndPan="magnify" viewBox="0 0 375 374.999991" height="500" preserveAspectRatio="xMidYMid meet" version="1.0"><defs><clipPath id="7e616f631e"><path d="M 0 0 L 211.5 0 L 211.5 212 L 0 212 Z M 0 0 " clip-rule="nonzero"/></clipPath><clipPath id="0eba68346c"><path d="M 44 153 L 168 153 L 168 232.5 L 44 232.5 Z M 44 153 " clip-rule="nonzero"/></clipPath><clipPath id="1452864b60"><path d="M 159.164062 137.816406 L 375 137.816406 L 375 354 L 159.164062 354 Z M 159.164062 137.816406 " clip-rule="nonzero"/></clipPath><clipPath id="aafc9d08c6"><path d="M 204 293 L 331 293 L 331 374.816406 L 204 374.816406 Z M 204 293 " clip-rule="nonzero"/></clipPath></defs><rect x="-37.5" width="450" fill="#ffffff" y="-37.499999" height="449.999989" fill-opacity="1"/><rect x="-37.5" width="450" fill="#ffffff" y="-37.499999" height="449.999989" fill-opacity="1"/><rect x="-37.5" width="450" fill="#ffffff" y="-37.499999" height="449.999989" fill-opacity="1"/><g clip-path="url(#7e616f631e)"><path fill="#78d1cc" d="M 211.535156 105.910156 C 211.535156 164.339844 164.191406 211.699219 105.785156 211.699219 C 47.378906 211.699219 0.0351562 164.339844 0.0351562 105.910156 C 0.03125 47.484375 47.378906 0.121094 105.785156 0.121094 C 164.191406 0.121094 211.535156 47.484375 211.535156 105.910156 " fill-opacity="1" fill-rule="nonzero"/></g><path fill="#3f2463" d="M 150.796875 91.476562 C 150.796875 91.476562 150.925781 129.195312 149.347656 134.921875 C 147.78125 140.648438 142.730469 146.75 142.730469 146.75 C 142.730469 146.75 139.027344 149.15625 136.332031 146.75 L 136.332031 137.953125 L 133.304688 146.75 C 133.304688 146.75 125.777344 151.09375 117.257812 147.820312 C 108.734375 144.542969 117.257812 116.210938 117.257812 116.210938 L 150.804688 90.128906 " fill-opacity="1" fill-rule="nonzero"/><path fill="#3f2463" d="M 60.816406 91.476562 C 60.816406 91.476562 60.6875 129.195312 62.265625 134.921875 C 63.832031 140.648438 68.882812 146.75 68.882812 146.75 C 68.882812 146.75 72.585938 149.15625 75.28125 146.75 L 75.28125 137.953125 L 78.3125 146.75 C 78.3125 146.75 85.839844 151.09375 94.355469 147.820312 C 102.882812 144.542969 94.355469 116.210938 94.355469 116.210938 L 60.816406 90.128906 " fill-opacity="1" fill-rule="nonzero"/><g clip-path="url(#0eba68346c)"><path fill="#ffffff" d="M 167.476562 211.988281 C 162.25 215.894531 156.636719 219.316406 150.703125 222.179688 C 149.800781 222.617188 148.890625 223.035156 147.984375 223.445312 C 135.09375 229.226562 120.820312 232.4375 105.785156 232.4375 C 90.746094 232.4375 76.472656 229.226562 63.589844 223.445312 C 62.667969 223.035156 61.761719 222.617188 60.863281 222.179688 C 54.933594 219.308594 49.316406 215.894531 44.089844 211.988281 C 45.007812 191.539062 55.867188 173.675781 71.953125 163.125 C 81.671875 156.746094 93.292969 153.042969 105.785156 153.042969 C 107.6875 153.042969 109.574219 153.128906 111.425781 153.296875 C 121.777344 154.234375 131.378906 157.714844 139.613281 163.125 C 147.019531 167.980469 153.316406 174.386719 158.042969 181.878906 C 163.589844 190.667969 166.976562 200.953125 167.476562 211.988281 " fill-opacity="1" fill-rule="nonzero"/></g><path fill="#f79b68" d="M 139.613281 163.125 C 138.671875 170.257812 135.527344 176.707031 130.871094 181.742188 C 124.636719 188.5 115.707031 192.738281 105.785156 192.738281 C 89.886719 192.738281 76.527344 181.859375 72.734375 167.132812 C 72.398438 165.828125 72.136719 164.484375 71.953125 163.125 C 81.671875 156.746094 93.292969 153.042969 105.785156 153.042969 C 107.6875 153.042969 109.574219 153.121094 111.433594 153.296875 C 111.757812 153.324219 112.078125 153.359375 112.394531 153.390625 C 112.597656 153.414062 112.800781 153.433594 112.996094 153.460938 C 113.21875 153.480469 113.441406 153.511719 113.65625 153.539062 C 113.789062 153.554688 113.929688 153.574219 114.066406 153.59375 C 114.261719 153.613281 114.464844 153.648438 114.664062 153.675781 C 114.820312 153.695312 114.976562 153.722656 115.136719 153.742188 C 115.269531 153.761719 115.40625 153.78125 115.539062 153.808594 C 115.769531 153.84375 115.992188 153.882812 116.21875 153.917969 C 117.203125 154.085938 118.179688 154.273438 119.144531 154.488281 L 119.789062 154.632812 C 119.910156 154.664062 120.039062 154.691406 120.160156 154.726562 C 120.390625 154.78125 120.625 154.832031 120.847656 154.894531 C 120.886719 154.902344 120.921875 154.90625 120.949219 154.914062 C 121.238281 154.988281 121.527344 155.0625 121.808594 155.144531 C 122.121094 155.21875 122.421875 155.304688 122.71875 155.394531 C 123.0625 155.488281 123.398438 155.589844 123.742188 155.6875 C 124.003906 155.769531 124.265625 155.851562 124.53125 155.9375 C 124.699219 155.992188 124.875 156.046875 125.035156 156.101562 C 125.3125 156.1875 125.585938 156.28125 125.855469 156.375 C 126.191406 156.492188 126.523438 156.605469 126.851562 156.726562 C 126.878906 156.738281 126.898438 156.746094 126.921875 156.753906 C 127.261719 156.875 127.601562 157.003906 127.9375 157.128906 C 128.1875 157.230469 128.441406 157.324219 128.699219 157.433594 C 129.363281 157.695312 130.019531 157.972656 130.664062 158.253906 L 131.511719 158.640625 C 131.769531 158.753906 132.023438 158.875 132.28125 158.996094 C 132.515625 159.109375 132.746094 159.21875 132.972656 159.332031 C 133.1875 159.433594 133.398438 159.542969 133.605469 159.648438 C 133.742188 159.71875 133.882812 159.785156 134.015625 159.859375 C 134.578125 160.140625 135.121094 160.4375 135.660156 160.734375 C 135.855469 160.84375 136.058594 160.957031 136.246094 161.0625 C 136.375 161.136719 136.496094 161.207031 136.617188 161.273438 L 137.074219 161.542969 L 137.539062 161.824219 L 137.84375 162.007812 C 138.132812 162.175781 138.414062 162.351562 138.695312 162.53125 C 139.007812 162.726562 139.308594 162.921875 139.613281 163.125 " fill-opacity="1" fill-rule="nonzero"/><path fill="#f79b68" d="M 120.820312 136.101562 L 120.820312 165.691406 C 120.820312 173.175781 114.699219 179.304688 107.21875 179.304688 L 104.347656 179.304688 C 96.867188 179.304688 90.753906 173.175781 90.753906 165.691406 L 90.753906 136.101562 C 90.753906 128.617188 96.867188 122.5 104.347656 122.5 L 107.21875 122.5 C 114.699219 122.5 120.820312 128.617188 120.820312 136.101562 " fill-opacity="1" fill-rule="nonzero"/><path fill="#f4716d" d="M 120.820312 136.101562 L 120.820312 151.761719 C 116.347656 154.246094 111.609375 155.6875 106.792969 155.6875 C 101.117188 155.6875 95.703125 154.113281 90.753906 151.359375 L 90.753906 136.101562 C 90.753906 128.617188 96.867188 122.5 104.347656 122.5 L 107.21875 122.5 C 114.699219 122.5 120.820312 128.617188 120.820312 136.101562 " fill-opacity="1" fill-rule="nonzero"/><path fill="#f79b68" d="M 142.449219 124.691406 C 142.449219 124.691406 149.492188 122.292969 153.988281 114.4375 C 158.878906 105.910156 155.808594 100.59375 154.835938 99.445312 C 152.191406 96.296875 148.105469 98.320312 147.429688 99.445312 C 146.757812 100.570312 137.007812 118.285156 142.449219 124.691406 " fill-opacity="1" fill-rule="nonzero"/><path fill="#f4716d" d="M 149.347656 102.238281 C 149.347656 102.238281 153.820312 102.8125 152.25 109.097656 C 150.675781 115.386719 146.546875 117.875 140.933594 121.085938 C 135.324219 124.300781 143.742188 103.519531 149.347656 102.238281 " fill-opacity="1" fill-rule="nonzero"/><path fill="#f79b68" d="M 70.949219 124.691406 C 70.949219 124.691406 63.90625 122.292969 59.410156 114.4375 C 54.515625 105.910156 57.585938 100.59375 58.554688 99.445312 C 61.199219 96.296875 65.289062 98.320312 65.960938 99.445312 C 66.636719 100.570312 76.390625 118.285156 70.949219 124.691406 " fill-opacity="1" fill-rule="nonzero"/><path fill="#f4716d" d="M 64.042969 102.238281 C 64.042969 102.238281 59.578125 102.8125 61.148438 109.097656 C 62.714844 115.386719 66.851562 117.875 72.460938 121.085938 C 78.074219 124.300781 69.660156 103.519531 64.042969 102.238281 " fill-opacity="1" fill-rule="nonzero"/><path fill="#f79b68" d="M 149.347656 98.089844 C 149.347656 72.269531 130.300781 51.335938 106.792969 51.335938 C 83.292969 51.335938 64.230469 72.269531 64.230469 98.089844 C 64.230469 123.910156 83.292969 150.898438 106.792969 150.898438 C 128.878906 150.898438 149.347656 123.691406 149.347656 98.089844 " fill-opacity="1" fill-rule="nonzero"/><path fill="#3f2463" d="M 110.625 79.234375 C 110.625 79.234375 118.632812 105 148.742188 102.449219 C 148.742188 102.449219 154.003906 94.84375 152.226562 78.304688 C 150.21875 59.667969 133.714844 43.988281 106.792969 49.597656 C 106.792969 49.597656 104.335938 62.847656 110.625 79.234375 " fill-opacity="1" fill-rule="nonzero"/><path fill="#3f2463" d="M 111.972656 51.335938 C 111.972656 51.335938 113.089844 46.457031 109.050781 42.640625 C 105.007812 38.820312 48.125 48.445312 62.285156 103.0625 C 62.285156 103.0625 76.703125 67.332031 109.722656 64.640625 L 111.972656 51.335938 " fill-opacity="1" fill-rule="nonzero"/><g clip-path="url(#1452864b60)"><path fill="#f2546b" d="M 375.199219 245.777344 C 375.199219 305.335938 326.847656 353.617188 267.199219 353.617188 C 207.550781 353.617188 159.199219 305.335938 159.199219 245.777344 C 159.195312 186.21875 207.550781 137.9375 267.199219 137.9375 C 326.847656 137.9375 375.199219 186.21875 375.199219 245.777344 " fill-opacity="1" fill-rule="nonzero"/></g><g clip-path="url(#aafc9d08c6)"><path fill="#ffffff" d="M 330.203125 353.910156 C 324.867188 357.894531 319.132812 361.382812 313.074219 364.300781 C 312.152344 364.746094 311.222656 365.171875 310.296875 365.589844 C 297.132812 371.480469 282.554688 374.757812 267.199219 374.757812 C 251.84375 374.757812 237.261719 371.480469 224.109375 365.589844 C 223.167969 365.171875 222.238281 364.746094 221.324219 364.300781 C 215.265625 361.375 209.53125 357.894531 204.191406 353.910156 C 205.128906 333.0625 216.21875 314.855469 232.648438 304.101562 C 242.574219 297.597656 254.441406 293.820312 267.199219 293.820312 C 269.144531 293.820312 271.070312 293.910156 272.960938 294.082031 C 283.53125 295.039062 293.335938 298.585938 301.746094 304.101562 C 309.3125 309.050781 315.742188 315.582031 320.570312 323.21875 C 326.234375 332.179688 329.695312 342.664062 330.203125 353.910156 " fill-opacity="1" fill-rule="nonzero"/></g><path fill="#fbd5c0" d="M 301.746094 304.101562 C 300.785156 311.371094 297.574219 317.945312 292.820312 323.078125 C 286.453125 329.96875 277.335938 334.285156 267.199219 334.285156 C 250.960938 334.285156 237.320312 323.195312 233.445312 308.1875 C 233.101562 306.855469 232.835938 305.488281 232.648438 304.101562 C 242.574219 297.597656 254.441406 293.820312 267.199219 293.820312 C 269.144531 293.820312 271.070312 293.90625 272.96875 294.082031 C 273.296875 294.109375 273.628906 294.144531 273.949219 294.179688 C 274.15625 294.199219 274.363281 294.21875 274.5625 294.246094 C 274.789062 294.269531 275.015625 294.300781 275.238281 294.332031 C 275.375 294.34375 275.519531 294.363281 275.65625 294.386719 C 275.855469 294.40625 276.0625 294.441406 276.269531 294.46875 C 276.425781 294.488281 276.585938 294.515625 276.75 294.535156 C 276.886719 294.558594 277.023438 294.578125 277.164062 294.605469 C 277.394531 294.640625 277.625 294.679688 277.855469 294.714844 C 278.859375 294.886719 279.859375 295.078125 280.839844 295.296875 L 281.5 295.441406 C 281.625 295.476562 281.757812 295.503906 281.878906 295.539062 C 282.113281 295.59375 282.355469 295.648438 282.582031 295.710938 C 282.621094 295.71875 282.65625 295.722656 282.683594 295.730469 C 282.980469 295.804688 283.277344 295.882812 283.566406 295.964844 C 283.882812 296.039062 284.191406 296.128906 284.492188 296.21875 C 284.84375 296.316406 285.1875 296.417969 285.539062 296.519531 C 285.808594 296.601562 286.074219 296.683594 286.34375 296.773438 C 286.515625 296.828125 286.695312 296.882812 286.859375 296.9375 C 287.140625 297.027344 287.421875 297.125 287.699219 297.222656 C 288.042969 297.335938 288.378906 297.453125 288.714844 297.578125 C 288.742188 297.589844 288.765625 297.597656 288.785156 297.605469 C 289.136719 297.730469 289.480469 297.859375 289.824219 297.988281 C 290.078125 298.09375 290.339844 298.1875 290.601562 298.300781 C 291.28125 298.566406 291.949219 298.847656 292.609375 299.136719 L 293.472656 299.527344 C 293.734375 299.644531 293.996094 299.769531 294.257812 299.890625 C 294.5 300.007812 294.734375 300.117188 294.964844 300.234375 C 295.1875 300.339844 295.398438 300.449219 295.613281 300.558594 C 295.75 300.625 295.894531 300.695312 296.03125 300.769531 C 296.601562 301.058594 297.160156 301.363281 297.710938 301.664062 C 297.910156 301.773438 298.117188 301.890625 298.308594 302 C 298.4375 302.074219 298.5625 302.144531 298.6875 302.210938 L 299.15625 302.488281 L 299.628906 302.777344 L 299.9375 302.960938 C 300.234375 303.132812 300.523438 303.3125 300.8125 303.496094 C 301.128906 303.695312 301.4375 303.894531 301.746094 304.101562 " fill-opacity="1" fill-rule="nonzero"/><path fill="#fbd5c0" d="M 282.554688 276.554688 L 282.554688 306.71875 C 282.554688 314.347656 276.304688 320.59375 268.664062 320.59375 L 265.734375 320.59375 C 258.09375 320.59375 251.847656 314.347656 251.847656 306.71875 L 251.847656 276.554688 C 251.847656 268.925781 258.09375 262.6875 265.734375 262.6875 L 268.664062 262.6875 C 276.304688 262.6875 282.554688 268.925781 282.554688 276.554688 " fill-opacity="1" fill-rule="nonzero"/><path fill="#f8a29e" d="M 282.554688 276.554688 L 282.554688 292.515625 C 277.988281 295.050781 273.148438 296.519531 268.230469 296.519531 C 262.433594 296.519531 256.902344 294.914062 251.847656 292.105469 L 251.847656 276.554688 C 251.847656 268.925781 258.09375 262.6875 265.734375 262.6875 L 268.664062 262.6875 C 276.304688 262.6875 282.554688 268.925781 282.554688 276.554688 " fill-opacity="1" fill-rule="nonzero"/><path fill="#fbd5c0" d="M 304.640625 264.921875 C 304.640625 264.921875 311.835938 262.476562 316.429688 254.46875 C 321.421875 245.777344 318.285156 240.359375 317.296875 239.183594 C 314.59375 235.980469 310.417969 238.039062 309.730469 239.183594 C 309.042969 240.332031 299.085938 258.390625 304.640625 264.921875 " fill-opacity="1" fill-rule="nonzero"/><path fill="#f8a29e" d="M 311.691406 242.035156 C 311.691406 242.035156 316.257812 242.617188 314.65625 249.023438 C 313.046875 255.4375 308.832031 257.972656 303.09375 261.246094 C 297.367188 264.523438 305.960938 243.339844 311.691406 242.035156 " fill-opacity="1" fill-rule="nonzero"/><path fill="#fbd5c0" d="M 231.625 264.921875 C 231.625 264.921875 224.429688 262.476562 219.835938 254.46875 C 214.839844 245.777344 217.972656 240.359375 218.964844 239.183594 C 221.667969 235.980469 225.839844 238.039062 226.527344 239.183594 C 227.214844 240.332031 237.179688 258.390625 231.625 264.921875 " fill-opacity="1" fill-rule="nonzero"/><path fill="#f8a29e" d="M 224.570312 242.035156 C 224.570312 242.035156 220.007812 242.617188 221.613281 249.023438 C 223.214844 255.4375 227.4375 257.972656 233.164062 261.246094 C 238.898438 264.523438 230.304688 243.339844 224.570312 242.035156 " fill-opacity="1" fill-rule="nonzero"/><path fill="#fbd5c0" d="M 311.691406 237.804688 C 311.691406 211.484375 292.238281 190.144531 268.230469 190.144531 C 244.230469 190.144531 224.761719 211.484375 224.761719 237.804688 C 224.761719 264.125 244.230469 291.636719 268.230469 291.636719 C 290.785156 291.636719 311.691406 263.90625 311.691406 237.804688 " fill-opacity="1" fill-rule="nonzero"/><path fill="#23255d" d="M 272.140625 218.585938 C 272.140625 218.585938 280.320312 244.851562 311.070312 242.246094 C 311.070312 242.246094 316.441406 234.496094 314.628906 217.636719 C 312.578125 198.640625 295.722656 182.652344 268.230469 188.375 C 268.230469 188.375 265.71875 201.878906 272.140625 218.585938 " fill-opacity="1" fill-rule="nonzero"/><path fill="#23255d" d="M 273.519531 190.144531 C 273.519531 190.144531 274.660156 185.171875 270.535156 181.28125 C 266.40625 177.386719 211.769531 185.378906 224.761719 237.804688 C 224.761719 237.804688 237.496094 206.453125 271.222656 203.707031 L 273.519531 190.144531 " fill-opacity="1" fill-rule="nonzero"/></svg>